# xmcd
#
# Track frame offsets: 
#        150
#        13245
#        25806
#        39257
#        52282
#        67678
#        78961
#        93972
#        109522
#        123824
#        136885
#        149864
#        160866
#        173523
#        186481
#        200444
#        215958
#        229811
#
# Disc length: 3243 seconds
#
# Revision: 1
# Processed by: cddbd v1.5.2PL0 Copyright (c) Steve Scherf et al.
# Submitted via: ExactAudioCopy v0.95b2
#
DISCID=fa0ca912
DTITLE=Charley Jordan - The Essential Charley Jordan Disc2
DYEAR=2002
DGENRE=Blues
TTITLE0=Dont Put Your Dirty Hands On Me
TTITLE1=Keep It Clean
TTITLE2=Sugar Man Blues Part1
TTITLE3=Sugar Man Blues Part2
TTITLE4=Cheating Blues
TTITLE5=Cutting My ABC's
TTITLE6=Mama's Advice
TTITLE7=So Soon
TTITLE8=Preacher Blues
TTITLE9=Cheery Wine Woman
TTITLE10=Hard Time Papa
TTITLE11=Chifforobe
TTITLE12=Memphis Fives
TTITLE13=Skin Man Blues
TTITLE14=Tired Feeling Blues
TTITLE15=Greyhound Blues
TTITLE16=You Run And Tell Your Daddy
TTITLE17=Keep It Clean No. 2
EXTD=YEAR: 2002
EXTT0=
EXTT1=
EXTT2=
EXTT3=
EXTT4=
EXTT5=
EXTT6=
EXTT7=
EXTT8=
EXTT9=
EXTT10=
EXTT11=
EXTT12=
EXTT13=
EXTT14=
EXTT15=
EXTT16=
EXTT17=
PLAYORDER=
